<svg id="Layer_1" xmlns="http://www.w3.org/2000/svg" viewBox="0 0 1348.2 1130.7">
  <style>
    .st0{fill:#BEE1F5;} .st1{fill:#0798D5;} .st2{opacity:0.6;fill:#005DA5;enable-background:new ;} .st3{opacity:0.5;fill:#FFFFFF;}
  </style>
  <title>
    letter
  </title>
  <path class="st0" d="M1335.6 1119.1H14c-.9 0-1.7-.7-1.7-1.7V12.7c0-.9.8-1.7 1.7-1.7h1321.6c.9 0 1.7.7 1.7 1.7v1104.7c-.1 1-.8 1.7-1.7 1.7zm-1319.9-3.3h1318.2V14.4H15.7v1101.4z"/>
  <path class="st0" d="M1321.2 0h27v27h-27zM661 0h27v27h-27z"/>
  <path class="st1" d="M666.4 5.4h16.2v16.2h-16.2z"/>
  <path class="st0" d="M661 1103.7h27v27h-27z"/>
  <path class="st1" d="M666.4 1109.1h16.2v16.2h-16.2zM1326.6 5.4h16.2v16.2h-16.2z"/>
  <path class="st0" d="M0 0h27v27H0z"/>
  <path class="st1" d="M5.4 5.4h16.2v16.2H5.4z"/>
  <path class="st0" d="M1321.2 1103.7h27v27h-27z"/>
  <path class="st1" d="M1326.6 1109.1h16.2v16.2h-16.2z"/>
  <path class="st0" d="M0 1103.7h27v27H0z"/>
  <path class="st1" d="M5.4 1109.1h16.2v16.2H5.4z"/>
  <path class="st0" d="M1321.2 552.4h27v27h-27z"/>
  <path class="st1" d="M1326.6 557.8h16.2V574h-16.2z"/>
  <path class="st0" d="M0 552.4h27v27H0z"/>
  <path class="st1" d="M5.4 557.8h16.2V574H5.4z"/>
  <g>
    <path class="st2" d="M1120.2 172.7c-6.8-10.9-23.1-17.7-34.8-9.6-58.8 40.5-117.5 81.1-176.3 121.6-32 22.1-63.9 44.1-95.9 66.2-1.5.5-3 1.1-4.5 1.9-11.9 6.6-22.7 14.6-32.9 23.5-5.6-1.1-11.6-.4-17.1 2.8-23.5 13.7-47 27.5-70.6 41.2-5.6.5-11.2 2.8-16.1 6.9-3.1 2.7-6.3 5.3-9.4 8l-90.9 53.1c-23.2 13.6-46.4 27.1-69.7 40.7-6.6-2.2-14-1.4-21.1 1.6-59.3 25.7-114.7 59.1-166 98.5-14.2 10.9-28 22.4-41.5 34.3-9.5 8.4-9.7 23.8-2.4 33.5.2.3.4.5.6.8 14.5 57.2 31.7 113.8 51.5 169.4-.3 3-.1 6.1.4 9.2 7.4 42.3 21.3 83.2 40.2 121.7 8.5 17.5 38.2 17.8 46.6 0 6.8-14.3 11.5-29 14.7-44.1 1.6.9 3.2 1.8 4.9 2.5 15.9 6.7 34.8 1 43.5-14.3 5-8.7 7.5-19.3 10.2-28.9.6-2.1 1.2-4.3 1.7-6.4 11.5.2 22.9-4.3 31.2-12.4 1.6-1.6 3.2-3.4 4.6-5.3l3 .1c11.4.3 23.5-8.5 26-19.8 2.8-12.3-2.1-23.5-12.4-30.5-3.1-2.1-6.2-4.2-9.3-6.4-17.1-19.6-33.5-39.7-49.2-60.3-.1-.2-.3-.4-.5-.7-.9-1.1-1.7-2.3-2.5-3.4-1.9-2.6-3.9-5.2-5.8-7.8-4-5.5-8-11-11.9-16.6-2.7-3.8-5.3-7.7-8-11.6 6.6-5.1 13.3-10.2 19.9-15.3 20.2-15.5 40.4-31 60.6-46.6 5.8-4.5 10.4-8.7 12.4-16.1 1.8-6.5 1-15.1-2.7-20.8-.6-1-1.3-1.9-2-2.8 15.8-11.3 31.5-22.6 47.3-34l90.6-65.1c29.2-21.1 58.5-42.5 84-68.1 5.5-5.5 10.9-11.2 16.2-16.9l253.9-182.1c26.5-19 52.9-38 79.4-56.9 5.6-4 10-8.3 11.9-15.1 2.3-6 1.7-14.1-1.8-19.6zm-732.8 651c-.1-.5-.1-1-.2-1.4l.6 1.2c-.2.1-.3.2-.4.2z"/>
    <path class="st2" d="M1282.7 68.1c-.7-.5-1.5-.9-2.3-1.3-1.1-4-3.1-7.7-6.2-11.1-8.3-8.9-25.3-12.8-35.3-3.8-26.4 23.8-52.8 47.6-79.2 71.3-1.1-4.3-3.3-8.3-6.3-11.5-8.6-9.3-24.7-12.3-35.3-3.8-12 9.7-24 19.3-36 28.9.1-1.5.1-3 0-4.3-.8-6.1-3.1-11.5-7.3-16.1-8.7-9.4-24.7-12.2-35.3-3.8-20.2 16-40.6 31.6-61.2 47 .2-5.3-1.3-10.7-5-15.4-8.6-11-25.8-15.8-37.7-6.4-22.8 18.1-45.8 36-69 53.7-.2-.2-.3-.4-.5-.6-9.3-10-23.9-11.3-35.3-3.8-17 11.2-34.1 22.2-51.2 33.2-.7-1.3-1.5-2.6-2.4-3.8-9.7-12.5-24.5-13.9-37.7-6.4-45.8 26.6-200.9 123.4-247 149.9-.4-4.6 107.1-79.3 104.1-83.2-9.7-12.4-24.5-14-37.7-6.4-38.8 22.4-77.6 44.9-116.4 67.3-.5-4.2-2-8.3-4.8-12-9.6-12.4-24.6-14-37.7-6.4-37.2 21.9-74.5 43.7-111.7 65.6-.8-2.8-2.1-5.5-4.1-8-9.6-12.3-24.6-14.1-37.7-6.4-29 17.2-57.9 34.4-86.9 51.6-9.2-6.8-21.3-6.6-31.4-.3-2.4 1.4-4.7 2.9-7.1 4.2-.4.2-2.8 1.6-4.1 2.3-1.5.7-4.7 2.3-5.2 2.6-2.1 1-4.3 2-6.5 2.9-9.4 4.1-19.1 7.4-29 10.2-13.6 3.8-21.4 21.8-16.1 34.6 3.5 8.4 9.7 13.8 17.1 16.1 31-13.7 78.2-25.6 125.6-46.6l-102.7 52.6c-4.6 8.7-5.1 19.1 1.5 27.7 8.4 10.8 21 13.5 32.7 8.8.3 2.1.7 4.2 1.3 6.2 3 9.8 11.2 16.7 20.6 19.2 1.3 4.1 3.5 8 6.1 10.8 5.8 6.2 14.2 9.4 22.6 8.6.1 6.1 2.4 12 7.1 17.1 2.7 2.9 5.7 5 9 6.4-.9 3.3-1.3 6.7-.9 9.5.8 6.1 3.1 11.5 7.3 16.1 7.8 8.4 19.7 10.7 30 6.6 43.8-24.1 87.5-48.3 131-72.7-42 27.5-84.4 54.5-127.4 80.4 1.1 2.3 2.6 4.5 4.3 6.3 5.3 5.7 12.8 8.8 20.3 8.7-3.1 9.2-.5 20.3 5.8 27.2 3.1 16.8 6.6 33.6 10.3 50.3-1 1.1-1.9 2.2-2.9 3.3-8.8 10.2-7.8 25.9 1.2 35.5 3.8 4.1 8.3 6.6 13.1 7.8 6.5 24.9 13.8 49.6 21.7 74.1.7 2.1 1.7 4 2.9 5.8-1.5 3.7-2.3 7.6-2 12 .5 6.7 4.2 14.5 9.7 18.6 3.9 3 8.1 4.8 12.2 5.6-2.6 3.5-5.1 7.1-7.6 10.7-4.1 5.9-6.7 12-6.1 19.4.5 6.7 4.2 14.5 9.7 18.6 3.3 2.5 6.8 4.2 10.3 5.1-4.7 6.7-9.3 13.4-13.8 20.3-3.8 5.9-7.1 12.1-6.1 19.4.8 6.1 3.1 11.5 7.3 16.1 8.3 9 25.2 12.7 35.3 3.8 48.9-43.3 96.9-87.7 143.8-133.1 6.1.6 12.3-.9 17.1-4.9 26.9-22.6 59.6-49.5 85.7-72.9 36.4-32.6 48.3-44.7 69-70.9 28.6-27.1 134.3-132 163-159.1-17.1 18.4-115 120.2-132.2 138.6-41.9 45.2-83.9 90.5-125.8 135.7-9.1 9.9-7.5 26.1 1.2 35.5 9 9.7 24.3 11.8 35.3 3.8 21.7-15.7 69.5-63.8 91.1-79.7-18.4 15.7-61.9 65.1-76.1 84.7-8.3 11.4-8.6 28.8 3.5 38 5.5 4.1 12.4 7 19.4 6.1 7.6-1 13.1-4.4 18.6-9.7 2-2 4-3.9 6.1-5.9-7.4 9.2-9.2 23-1.5 32.9 7.6 9.8 19.3 13.2 30.3 9.8.5 2.9 1.4 5.7 2.7 8.3 5.9 11.3 20.5 18.2 32.9 12.9 3.3-1.4 6.6-3 9.7-4.6-.4 1.1-.7 2.3-.9 3.6-1.2 6.6.4 15.1 4.6 20.5 7.8 10.1 23.6 15.3 35.1 8.2-2.7 8.9-1.1 18.4 5.9 25.9 9.5 10.2 23.6 10.9 35.3 3.8 21.4-13.1 38.8-33.9 47.9-57.3 1.9-4.9 2.5-10.4 1.8-15.6 12.8-21.3 24.9-43.1 36.1-65.3 4.6-9.2 2.6-22.1-4.5-29.7 1.9-2.9 3.9-5.9 5.8-8.8 10.6-16.6 20.7-33.4 30-50.8 5.3-9.9 2.2-22.2-5.2-29.9.2-.3.4-.5.6-.8 16.8-20.2 33.4-40.6 50.1-61 8.5-10.4 7.9-25.7-1.2-35.5-2.8-3.1-6.8-5.6-11.1-7.1 22.8-26.5 45.5-53.1 68.1-79.8 9.1-10.8 8-29.3-3.5-38-2.7-2-5.7-3.7-8.9-4.9 1.6-1.7 3.3-3.4 4.9-5.1 31.9-33.6 64.5-67.1 90.2-105.9 7.5-11.3 8.7-24.9-1.2-35.5-7.6-8.2-19.3-10.7-29.5-6.8 9.6-10.2 19-20.7 28.2-31.4 24.2-28.3 45.9-58.3 65-90.2 3.2-5.3 3.2-15.1.9-20.6-2.2-5.3-5.4-9.5-10.1-12.8 13.1-12.4 26.1-24.8 39.2-37.1 6.1-5.7 7.4-15.1 5.4-23.5 25.9-26 47.9-55.2 55.6-92.3 2.1-10.9-3.5-22.1-12.4-27.7zM525.2 556.5c-.5.4-1.1.9-1.6 1.3.6-.6 1.2-1.2 1.8-1.9-.1.3-.2.5-.2.6zm123.4-102.8c-34.7 28.2-69.6 56-104.8 83.6 19.1-19.3 38.1-38.5 57.3-57.7 2.4-2.4 4.3-6.3 5.3-10.3 30.7-18.6 61.3-37.3 91.8-56.3-16.5 13.7-33 27.3-49.6 40.7zm72.6 31.2c-.2-1.8-.6-3.6-1.2-5.4 9.4-6.8 18.9-13.6 28.3-20.5-9 8.7-18.1 17.3-27.1 25.9zm42.9 365.9c-5.6 5.9-11.2 11.8-16.9 17.6-3.1 3.1-6.1 6.2-9.2 9.2-1.3 1.3-2.7 2.6-4 3.9-.3.3-1 1-1.7 1.8l-.2.2.3-.3-.3.3c-13.3 10.5-26.7 21-40.2 31.4 17.6-17.1 35.2-34.2 52.7-51.4 9.3-7.3 18.7-14.4 28.1-21.6-3 2.9-5.8 5.9-8.6 8.9z"/>
    <path class="st3" d="M871.8 1069.6l-12.8-9.7L1333.1 37.4c2.6-3.5 2.8-8.4.3-12.1-2.8-4.1-8.1-5.6-12.6-3.7L47.7 441.9l-10.4-10.4c-4.1-4.1-10.7-4.1-14.7 0-4.1 4.1-4.1 10.7 0 14.7l3 3-4.7 1.5c-5.5 1.8-8.4 7.7-6.6 13.2 1.8 5.5 7.7 8.4 13.2 6.6l14.5-4.8 201.5 202.8-8.9 5.3c-4.9 3-6.5 9.4-3.6 14.3 3 4.9 9.4 6.5 14.3 3.6l8.7-5.2 87.8 367.7-9.1 41.5c-1.2 5.6 2.3 11.2 8 12.4.7.2 1.5.2 2.2.2 4.6 0 8.7-3 10-7.5l.8 3.4c1.1 4.8 5.4 8 10.1 8 .8 0 1.6-.1 2.4-.3 5.6-1.3 9.1-7 7.7-12.6l-10.1-42.4L556.4 856 833 1066.3l-5.7 12.3c-2.4 5.2-.2 11.4 5.1 13.8 1.4.7 2.9 1 4.4 1 3.9 0 7.7-2.2 9.5-6l3.8-8.1 9.1 7c4.6 3.5 11.1 2.6 14.6-2 3.5-4.7 2.6-11.2-2-14.7zM64.1 458.4l1175-387.9-977.2 587L64.1 458.4zM1180.6 130L392.8 741.7c-4.5 3.5-5.4 10.1-1.8 14.6 2.1 2.6 5.1 4 8.2 4 2.2 0 4.5-.7 6.4-2.2l1.1-.9-54.5 250-79.3-332.1L1180.6 130zm-809.8 889.7l57-261.4 111.9 85.1-168.9 176.3zm62.8-283.3L1296.9 66l-454.8 981-408.5-310.6z"/>
  </g>
</svg>
