<svg id="Layer_1" xmlns="http://www.w3.org/2000/svg" viewBox="0 0 1348.2 1130.6">
  <style>
    .st0{opacity:0.6;fill:#005DA5;enable-background:new ;} .st1{fill:#BEE1F5;} .st2{fill:#0798D5;} .st3{opacity:0.8;enable-background:new ;} .st4{opacity:0.6;fill:#B3DFF5;enable-background:new ;} .st5{fill:#FFFFFF;} .st6{opacity:0.5;} .st7{opacity:0.7;enable-background:new ;}
  </style>
  <title>
    Untitled-3
  </title>
  <path class="st0" d="M1271.3 571.4c-1.7-12.9-13-23.7-26.5-23.4-131.8 2.7-263.5 5.4-395.2 11.1-7.9.3-15.8.7-23.7 1.1-8.7-5-19.2-4.9-27.8.3-51.5-.5-102.9-1.8-154.4-3.5-81.1-2.6-162.2-6.3-243.3-8.8-6-2.3-12.7-2.8-18.7-.6-2.5-.1-5-.2-7.6-.2-23.5-.7-47.2-1-70.6 1.2-3.9.4-7.8.8-11.7 1.3-2.3-1-4.8-1.8-7.6-2.2-8.7-1.2-16.1 1.5-22.6 7.4-4.7 1-9.5 2.2-14 4-.7-.5-1.4-.9-2.1-1.4-8.6-5-18.7-4.6-27.3 0-.5.3-1 .5-1.5.8-2.7-3.4-6.3-6.1-10.5-7.9-9.7-4.1-22-2.3-29.5 5.6l-.5.5c-.3.2-.7.5-1 .7-.4.1-.8.2-1.3.3-.5-.1-1-.3-1.5-.4-12.3-6.8-29.8-3.1-36.7 9.8-6.8 12.8-3.4 29.5 9.7 36.9 8.9 5 18.9 7.5 28.9 7.4 6.3 9 17.6 14.3 29 10.7l7.2-2.4c3.2 11.7 13.2 19.5 26 20.3 4 .2 7.9.5 11.9 1 1.7.2 3.5.6 5.2.7.8.1 1.6.2 2.3.4 8.1 1.3 16.2 3 24.2 5 16.1 4 31.9 9.1 47.4 14.8 31.7 11.6 62.7 25.2 94.2 37.4 43.2 16.8 86.9 32.3 131 46.6 1.3 7.7 5.5 14.9 12.7 18.2 32.5 14.8 65.3 29.8 98.7 42.4 11 4.2 22.4 4.7 33.8 2.2 7.9-1.7 15.5-5.5 23.1-8.4 8-3 16.1-5.9 24.3-8.6 1.6-.2 3.2-.5 4.8-.8.4.4.9.8 1.3 1.1 11 8.5 25.2 6.9 35.5-2.1 5.3-4.6 10.5-9.2 15.8-13.9 2.4-.7 4.7-1.5 7.1-2.2 4.6-1 9.3-2 13.9-3 3.4-.7 6.6-2.3 9.3-4.5 63.9-20.8 127-43.8 189.2-69.1 57.6-23.4 114.6-48.6 170.6-75.6l59.4-20.7c12.5-4.3 20.9-15.7 19.1-29.5zM1219 1046.9c-1.8-13.1-13-23.4-26.5-23.4h-9.4c-2.4-9-9-17.4-18.5-18.9-4.7-.7-9.5-1.4-14.2-2.1-2.3-5-6.7-10.5-11.1-12.5-66.4-29-133.9-55.3-201.4-81.4-62.9-24.1-125.9-48.5-191.7-63.4-19-4.3-38.2-7.8-57.5-10.4-6.3-4.5-14.1-6.5-21.6-3.4-.7.3-1.3.5-2 .8-12.2-1.1-24.5-1.7-36.8-1.9-11.4-.2-23.4 8.4-26 19.8-.6 2.7-.8 5.4-.7 8-46.8 19.1-93.7 38.2-140.5 57.3l-206 84c-18.9 7.7-37.7 15.5-56.6 23.1-9.1 3.6-18.3 7.1-27.8 9.5l-5.1 1.2c-6.4.3-12.9.6-19.3.9-14.1.6-27.7 12-27 27 .7 15.6 11.9 25.7 27 27 8.4.7 16.9.2 25.3-1.1 111.7-5.1 223.5-10.1 335.2-15.2 4.6 4.2 10.7 6.7 17.7 6.8l264.5 4.2c88.1 1.4 176.1 2.9 264.2 4.2 33.4.5 67 .5 100.2-3 9.3 0 18.6.1 27.8.1 7.2 0 13.7-2.9 18.5-7.6 13-2.9 21-16.9 19.3-29.6z"/>
  <path class="st0" d="M667.2 819.1c-1.8-13.4-13-23.1-26.5-23.4-2.1 0-4.2-.1-6.3-.3-3.3-3.5-7.6-6.3-12.5-8.1-39.8-15.2-79.6-30.2-119.2-45.8-9.8-3.9-19.6-7.8-29.3-11.9-1-.4-2-.9-3-1.3-1.8-.8-3.7-1.6-5.5-2.4-5-2.1-9.9-4.3-14.9-6.6-19-8.5-37.6-17.7-55.9-27.5-35.7-19-70.6-39.5-106.9-57.4-37.7-18.5-76.9-33.8-117.6-44.1-23.7-6-45-20.1-67.5-29.7-16.9-7.2-35-11.6-40.7 8.7-2.9 10.4-4.1 14.2-9.1 23.9-4.7 9.2-6.4 19.1-4.4 29.4 1.5 7.8 5.1 14.8 9.9 20.9C54.4 745 55 846.6 59.6 947.9c1.6 34.5 3.6 68.9 6.1 103.3.6 8.7 3.6 15.8 10.6 21.2 6.3 4.8 15.7 7.8 23.5 4.8 76.4-29.2 152.9-58.4 229.3-87.6 73.6-28.1 149.9-53.4 217.9-93.9 16.7-9.9 33-20.6 50.2-29.7 4.5-2.4 9.1-4.7 13.7-6.8.5-.2.9-.4 1.4-.6h-.1.1c.3-.1.6-.3.9-.4 3.5-1.6 1.8-.2.1.2 1.9-.5 4.5-2 6-2.6 9.3-3.3 18.8-5.8 28.5-7.2 6-.9 13.4-7.2 16.1-12.4 3-5.4 4.2-11 3.3-17.1zm-542.4-95.6c-.7 1-1.4 2-2 3.1-.7 1.4-1.3 2.8-1.9 4.2-.4-3.1-.7-6.2-1.1-9.3 1.7.7 3.4 1.4 5 2zm-7.6 289.6l-.6-9.6c2.9 2.4 6.2 4.5 9.8 6.1-3.1 1.2-6.1 2.3-9.2 3.5zm12.5-185.3l-.3-5.1c.4 1.2.8 2.4 1.3 3.6-.4.5-.7 1-1 1.5zm7.7 90.2c-.2 2.2-.4 4.5-.6 6.7-.8-4-1.5-8.1-2.2-12.1 0-.2 0-.3-.1-.5-.2-1.9-.4-3.9-.6-5.9-.4-4.5-.8-9-1.1-13.5 0-.6-.1-1.1-.1-1.7.1.1.2.2.2.3.5 4.4.8 8.8 1 13.2.2 4.7 1.4 9 3.5 12.9v.6zm42 71.3c.8-1.5 1.5-3.1 2.2-4.7 5.4-1.5 10.8-3.1 16.1-4.8.5.7 1 1.3 1.5 1.9-6.6 2.6-13.2 5.1-19.8 7.6zm35.7-219.7c-.4-3.8-.9-7.7-1.3-11.5 2 .8 4 1.5 6.1 2.3-2.1 2.6-3.7 5.8-4.8 9.2zm64 29.1c-.6-5.2-1.4-10.3-2.3-15.5-.2-1-.5-2-.9-3.1 1.9.6 3.7 1.3 5.6 1.9 1.5.5 2.9 1 4.4 1.4-3.5 4.2-5.8 9.5-6.8 15.3zm254.7 41.9c-.1.1-.3.2-.4.3-.2-.5-.3-1-.5-1.5-.3-.7-.6-1.4-1-2 2.1.2 4.2.4 6.4.5-1.6.9-3.1 1.8-4.5 2.7zM1308.4 610.3c4-13.5-4.8-30-18.9-33.2-6.9-1.6-14.7-1.2-20.8 2.7-5.7 3.7-8.9 8.2-11.6 14.2 0 0 0 .1-.1.1l-.1.1-.1.1c-1.4.8-2.7 1.8-4.2 2.6-7.4 4.2-15.1 7.7-22.7 11.5-16.8 8.3-33.6 16.6-50.5 24.6-16.6 7.9-33.3 15.7-50.1 23.2-8.4 3.8-16.8 7.5-25.3 11.1-2 .9-4.1 1.7-6.1 2.6-.3.1-1.1.5-1.7.7.2-.1.4-.2.6-.2 3.4-1.4.4-.2-.3.1-4.4 1.8-8.8 3.7-13.2 5.5-69.3 28.2-141.3 47.8-211.7 73-33.4 12-66.3 25.6-98.2 41.2 0-1.4-74.6 17.7-80.2 19.3-7.6 2.1-15.5 4.4-21.8 9.3 31.7 18.5 63.3 35.4 96.6 50.3 17.7 7.9 35.9 14 54.5 19.4 16.7 4.8 33.5 9.2 49.9 14.9 4.2 1.4 8.4 3 12.5 4.6 1.9.7 4 1.3 5.8 2.3-1.2-.6-4.9-2.1-.9-.4 1.1.5 2.3 1 3.4 1.5 8.9 4 17.7 8.2 26.3 12.7 33.6 17.1 66.8 34.8 101.5 49.7 36 15.5 72.7 29.2 110.5 39.7 10.1 2.8 20.3 5.2 30.4 7.9 5 1.4 9.9 3 14.8 4.7.5.2.8.3 1 .3.7.4 1.4.9 1.7 1 2.1 1.1 4.2 2.3 6.3 3.5 19 11.3 36.7 25.3 54.7 38.1 3.1 2.2 6.8 3.4 10.6 3.7 4.6 1.8 9.5 2.9 15.1 3.6 9.8 1.3 18.1-6.3 23.3-13.4 15.9-21.3 16.4-50 13.7-75.3-2.9-28-6.3-55.9-9.5-83.8-.8-7-2.3-12.9-7-18.2 2.6-11.1 4.4-22.4 5.8-33.9 4.2-36.3 3.7-72.9 3.9-109.4l.3-62.8c0-6.5-2.6-12.9-6.9-17.8 4.6-14.5 9.7-28.8 15.2-43 1.4-2.5 2.6-5.4 3.5-8.4zM957.7 883c-2-1.1-4.1-2.1-6.1-3.2 3.1 1 6.1 1.9 9.2 2.9-.2.1-.5.3-.7.4-.3.2-.6.4-1 .6-.5-.2-1-.5-1.4-.7z"/>
  <path class="st1" d="M1335.6 1119.1H14c-.9 0-1.7-.7-1.7-1.7V12.7c0-.9.8-1.7 1.7-1.7h1321.6c.9 0 1.7.7 1.7 1.7v1104.7c-.1 1-.8 1.7-1.7 1.7zm-1319.9-3.3h1318.2V14.4H15.7v1101.4z"/>
  <path class="st1" d="M1321.2 0h27v27h-27zM661 0h27v27h-27z"/>
  <path class="st2" d="M666.4 5.4h16.2v16.2h-16.2z"/>
  <path class="st1" d="M661 1103.7h27v27h-27z"/>
  <path class="st2" d="M666.4 1109.1h16.2v16.2h-16.2zM1326.6 5.4h16.2v16.2h-16.2z"/>
  <path class="st1" d="M0 0h27v27H0z"/>
  <path class="st2" d="M5.4 5.4h16.2v16.2H5.4z"/>
  <path class="st1" d="M1321.2 1103.7h27v27h-27z"/>
  <path class="st2" d="M1326.6 1109.1h16.2v16.2h-16.2z"/>
  <path class="st1" d="M0 1103.7h27v27H0z"/>
  <path class="st2" d="M5.4 1109.1h16.2v16.2H5.4z"/>
  <path class="st1" d="M1321.2 552.4h27v27h-27z"/>
  <path class="st2" d="M1326.6 557.8h16.2V574h-16.2z"/>
  <path class="st1" d="M0 552.4h27v27H0z"/>
  <path class="st2" d="M5.4 557.8h16.2V574H5.4z"/>
  <g>
    <g class="st3">
      <path class="st4" d="M1205.1 377.8c8.4-7.8 10.5-23 4.2-32.7-6.2-9.6-19-16.5-30.5-12.4-4.7 1.7-9.4 3.5-13.9 5.4 13.7-13.6 27.1-27.5 40.2-41.8 9.2-10 10.5-24.6 2.1-35.5-8.5-11-22.6-13-34.8-7-5.1 2.6-10.2 5.2-15.2 8l3.2-3c6.9-6.4 14.2-12.6 19.3-20.7 7.3-11.6 8.5-26.7 1.2-38.6-5.8-9.3-19.3-16.7-30.5-12.4-28.6 11.1-53.6 27.2-77.8 45.3 0-4.6-5.1-18.1-7.3-22.5-7-14.2-25.3-15.1-39.6-11.8-8.7 2-16.3 7.3-23.8 11.9-13.1 8.1-26.1 16.4-38.9 25-25.1 16.8-41.9 33.6-65.7 52.1-16.2 10.3-34.7 27-50.7 37.7-16 10.7-31.8 21.5-47.5 32.6 18.5-19.5 37.1-38.8 57.2-56.6 6.5-5.8 13.2-11.4 19.9-16.9 3.3-2.7 6.5-5.3 9.8-7.9 0 0 .1-.1.2-.1-.5.4-.6.5.5-.4l1.5-1.2c-.3.2-.6.5-.9.7l4.8-3.6c14.2-10.6 28.8-20.6 43.8-30 11.9-7.5 17.8-24.4 9.7-36.9-3.7-5.8-9.3-10.8-16.1-12.4-7.6-1.7-13.8-.3-20.8 2.7-22.5 9.7-44.3 20.8-65.5 32.9 1.5-3.6 2.3-7.5 2.1-10.6-.3-6.1-2-11.5-5.8-16.4-8.3-10.8-22.8-13.4-34.8-7-11.5 6.2-22.7 12.6-33.9 19.3-8.4-11.1-23-14.6-35.6-7.8-7.9 4.3-15.7 8.6-23.5 13.1.4-5.7-.8-11.6-3.5-15.8-6.1-9.5-19-16.6-30.5-12.4-17.4 6.3-33.8 14.5-49.5 23.8.1-4.8-.9-9.7-3.5-13.8-6.2-9.6-18.9-16.4-30.5-12.4-42.2 14.5-79.3 39.4-114.8 66.2 6-4.8 12-9.6 18.1-14.3 4.5-3.5 6.7-10.2 7.4-15.5.8-5.8 0-12.2-3.2-17.2-2.5-3.9-5.8-7.2-9.7-9.7-5.2-3.3-14.9-5-20.8-2.7-26.4 10.4-51.2 23.4-74.8 38.2 1.6-1.3 3.2-2.5 4.8-3.8 1.2-.9 2.3-1.9 3.5-2.7-.9.7-1.8 1.4-2.6 2 .9-.7 1.9-1.4 2.8-2.2 5.6-4.3 10.8-8.9 12.4-16.1 1.4-6 1.1-11.8-1.4-17.6-4.7-11.2-19.4-20.7-31.9-15.6-18.2 7.4-35.5 16-52 26.7-5.5 3.5-10.8 7.2-16.1 11 0-6-1.9-12-5.6-16.9-8-10.4-23.2-14-34.8-7l-33 20.1c-.7-6-3.3-11.9-7.6-15.8-9.2-8.5-21.6-9.9-32.7-4.2-12.4 6.3-24.5 12.9-36.4 20-12.1 7.2-17.6 24.6-9.7 36.9 1.1 1.8 2.4 3.4 3.9 4.8l-12.4 19.8c-6.1 9.8-4.4 24.8 4.2 32.7 4.9 4.5 11.3 7.3 17.8 7.8-7.6 10.9-14.9 22-21.9 33.2-6.1 9.8-4.4 24.8 4.2 32.7 4.2 3.8 9.1 6.3 14.3 7.2-2.1 2.7-4.3 5.4-6.4 8.1-4.6 5.9-9.4 11.6-12.6 18.4-5.1 10.8-6.9 21.7-4 33.4 4.2 16.9 25 24.9 39.7 16.1 1.2-.7 2.4-1.5 3.6-2.2-8.2 10.3-15.6 21.2-21 33-4.7 10.1-5 20.7 2.1 30 7.1 9.2 17.3 11.5 28.4 9.7 7-1.1 13.8-3.3 20.3-6.3v1.4c.5 9.6 4.9 18.3 13.4 23.3 8.9 5.2 18.3 4.3 27.3 0 11.5-5.5 22.6-11.6 33.5-18.2 1.3 2.6 2.9 4.9 5 6.8 11.5 10.5 26.7 9.8 38.2 0 5.8-4.9 11.6-9.8 17.4-14.8-.8 4.4-1.1 8.9-.8 13.6.7 9.7 4.7 18.3 13.4 23.3 8.3 4.8 19 4.9 27.3 0 28.3-17 55.6-35.5 82.3-55-2.3 2.8-4.6 5.7-6.8 8.6-6.9 8.8-10.2 18.5-5.6 29.5 4.3 10.2 13.7 16 24.7 16.6 23.4 1.3 43.6-10.9 61.2-24.9 7.8-6.2 15.4-12.8 22.8-19.6-4.6 9.4-3.8 20.5 2.7 28.8 6.5 8.4 17.9 12.7 28.4 9.7 27.3-7.9 52.6-21.2 76-37-.7 2.9-.9 6.1-.4 9.7 1 7.8 5.4 16.1 12.9 19.7 12.8 6.2 25.5 7.7 39.4 4.6 9.9-2.2 19.5-7.2 28-12.6 12.5-7.9 24.6-16.6 36.7-25.2-.4.9-.7 1.9-1 2.9-1.8 6.5-1 15.1 2.7 20.8 7 10.9 24 18.3 36.1 10.3 11.2 4.9 22.1 5.8 34.4 3.5 9.1-1.7 18.1-6.2 26-10.8 1.1-.6 2.2-1.3 3.3-1.9v.3c.3 6.9 2.5 14.4 7.9 19.1 8.3 7.2 17.9 11.6 29.1 11 9.4-.5 18-3.6 26.2-8 9.5-5.2 18.6-11.4 27.4-17.8l9.3-6.9c0 .8 0 1.5.1 2.3.5 9.6 4.8 18.3 13.4 23.3 9 5.3 18.2 4.1 27.3 0 5.8-2.6 11.4-5.7 16.8-9 8.5 10.6 22.4 12.5 34.4 6.5 13.7-6.9 27.4-13.7 41.1-20.6 2.2 4 5.5 7.4 9.7 9.7 12.9 6.8 29.3 3.3 36.9-9.7 7.8-13.3 15.5-26.6 23.3-39.9 5.8-10 4.5-24.7-4.2-32.7-1.9-1.8-4-3.2-6.2-4.4 7.7-8.2 9.9-22.4 3.6-32.1-2.5-3.9-5.8-7.2-9.7-9.7-5.9-3.8-12.3-3.8-18.8-3l.3-.3c13.9-12.5 28.2-25.9 42.4-39.3zm-993.6 88.6c-.5.4-1 .8-1.6 1.2-1 .7-1.5.9 2-1.5-.2.1-.3.2-.4.3zM489 507.8h-.3c1.7-.6 2.6-.6 2.8-.5-.8.2-1.7.3-2.5.5zm481.6-193.7c-14.8 11.7-29.6 23.4-44.4 35-7.3 5.7-14.7 11.2-21.9 17-.5.4-1 .8-1.5 1.1-1.8 1.4-3.5 2.7-5.3 4.1l-11.4 8.7c-18.9 14.5-38 28.7-57.2 42.9l10.8-10.5c21.4-20.5 43.6-40.3 66.5-59.1 5.6-4.6 11.2-9.1 16.8-13.6 10.2-6.5 20.4-12.9 30.6-19.3 13-8.1 26.1-16.2 39.3-24.2-7.4 6-14.9 11.9-22.3 17.9z"/>
      <path class="st5" d="M891.2 271.1c-.2.1-.3.3-.5.4.3-.2.7-.5 1.1-.8-.1.1-.2.1-.3.2-.1 0-.2.1-.3.2z"/>
    </g>
  </g>
  <g>
    <path class="st0" d="M612.4 858.6c.2 0 .3 0 .5-.1-.1.1-.3.1-.5.1zM613.4 858.5c-.1 0-.3.1-.4.1.1 0 .2-.1.4-.1z"/>
  </g>
  <g>
    <path class="st0" d="M730.2 848.4c1.6.9 2.2 1.1 2.2 1-.7-.3-1.3-.6-2-.9 0 0-.1-.1-.2-.1z"/>
  </g>
  <g>
    <path class="st0" d="M594.3 187s-.1 0 0 0c.3 0 1.4-.2 2.3-.3h-.4c-.6.1-1.3.2-1.9.3zM770.4 188.3c.2 0 .8 0 1.5-.2h-.6c-.3.1-.6.1-.9.2z"/>
  </g>
  <g>
    <path class="st0" d="M810.2 140.2c-2.6-.5-5.2-1.1-7.8-1.8-4-4.9-8.7-8.6-13.7-12.6-10.1-8-20.2-16.1-30.4-24.1-19.8-15.7-39.6-31.5-59.4-47.2-1.2-2.4-2.8-4.5-4.7-6.2-11.6-10.7-26.5-9.6-38.2 0-21 17.3-42.2 34.3-63.7 50.9-.4.3-2.4 1.9-2.9 2.3-.4.3-.7.5-.8.6-2.6 2-5.1 3.9-7.7 5.9-5.4 4.1-10.8 8.2-16.3 12.3-11.1 8.4-22.3 16.6-33.6 24.8-11 8-16.6 20.5-11 33.7 5.4 12.8 18.5 18.4 31.9 15.6 8.1-1.7 16.2-3.3 24.4-4.6 4.1-.7 8.2-1.4 12.3-2 1.9-.3 3.7-.6 5.6-.8-.3 0 0 0 1.4-.2.2 0 .4 0 .6-.1.3 0 .6-.1.9-.1-.2 0-.4.1-.6.1 16.1-2 32.3-3.5 48.6-4.3 33.4-1.7 67-.9 100.3 2.4 1 .1 2 .2 2.9.3 6.1 3.8 13.6 5.2 21.4 3.3.2 0 .4-.1.7-.1-.2 0 0-.1 1-.1.2 0 .3 0 .5-.1h.4c1.3.2 2.7.4 4 .6.9.2 1.8.3 2.7.4 5.7.9 11.4 1.9 17 3 7.2 1.4 14.3 1.1 20.8-2.7 5.6-3.3 10.9-9.7 12.4-16.1 3-13.4-4.2-30.1-19-33.1zM1254.4 503.9c-3-1.5-6-2.9-9.1-4.1-.2-.2-.5-.4-.7-.6-2.5-2.2-5.2-4.2-8-5.9-2.4-4.6-6.9-9-10.7-11.2-5.8-3.4-14.3-4.8-20.8-2.7-6.5 2.1-12.8 6.2-16.1 12.4-3.6 6.8-3.9 13.2-2.7 20.8-1.2-7.6-.1-.2 0 1.5.1 2.3.1 4.5.1 6.8-.3 14.3 12.6 27.4 27 27 .4 0 4 .1 5.9.2 8.5 5.4 17.9 7.5 28.8 5.2 22.1-4.9 26.7-39 6.3-49.4zM109.5 502.9c3-1.5 6-2.9 9.1-4.1.2-.2.5-.4.7-.6 2.5-2.2 5.2-4.2 8-5.9 2.4-4.6 6.9-9 10.7-11.2 5.8-3.4 14.3-4.8 20.8-2.7 6.5 2.1 12.8 6.2 16.1 12.4 3.6 6.8 3.9 13.2 2.7 20.8 1.2-7.6.1-.2 0 1.5-.1 2.3-.1 4.5-.1 6.8.3 14.3-12.6 27.4-27 27-.4 0-4 .1-5.9.2-8.5 5.4-17.9 7.5-28.8 5.2-22.1-4.9-26.7-39-6.3-49.4z"/>
  </g>
  <g class="st6">
    <path class="st3 st5" d="M59.1 1119.1c-5.5 0-10-4.5-10-10V521.6c0-5.5 4.5-10 10-10s10 4.5 10 10v587.5c0 5.5-4.5 10-10 10zM1300.4 1119.1c-5.5 0-10-4.5-10-10V521.6c0-5.5 4.5-10 10-10s10 4.5 10 10v587.5c0 5.5-4.5 10-10 10z"/>
    <path class="st3 st5" d="M1322.4 1091.8H26.4c-5.5 0-10-4.5-10-10s4.5-10 10-10h1296c5.5 0 10 4.5 10 10s-4.5 10-10 10z"/>
    <path class="st7 st5" d="M1323.7 562.2H35.9c-5.5 0-10-4.5-10-10s4.5-10 10-10h1287.8c5.5 0 10 4.5 10 10s-4.5 10-10 10z"/>
    <path class="st7 st5" d="M1300 565c-2.3 0-4.7-.8-6.6-2.5L675.7 33 69.6 560.1c-4.2 3.6-10.5 3.1-14.1-1.1-3.6-4.2-3.1-10.5 1.1-14.1L669.3 12.2c3.8-3.2 9.4-3.2 13.1.1l624.1 535.3c4.2 3.6 4.6 10 .9 14.1-1.9 2.2-4.7 3.3-7.4 3.3z"/>
    <path class="st3 st5" d="M1220.9 199.7H147.1c-5.5 0-10-4.5-10-10s4.5-10 10-10h1073.8c5.5 0 10 4.5 10 10s-4.5 10-10 10z"/>
    <path class="st3 st5" d="M167.6 562.7c-5.5 0-10-4.5-10-10V169.1c0-5.5 4.5-10 10-10s10 4.5 10 10v383.6c0 5.5-4.5 10-10 10zM1191.8 562.7c-5.5 0-10-4.5-10-10V169.1c0-5.5 4.5-10 10-10s10 4.5 10 10v383.6c0 5.5-4.5 10-10 10z"/>
    <path class="st6 st5" d="M60.3 1092.4c-3.9 0-7.6-2.3-9.2-6.1-2.2-5.1.2-11 5.3-13.1l1237.4-526.9c5.1-2.2 11 .2 13.1 5.3 2.2 5.1-.2 11-5.3 13.1L64.2 1091.6c-1.3.5-2.6.8-3.9.8z"/>
    <path class="st6 st5" d="M1299.1 1094.1c-1.3 0-2.7-.3-4-.8L72 560.3c-5.1-2.2-7.4-8.1-5.2-13.2s8.1-7.4 13.2-5.2l1223.1 532.9c5.1 2.2 7.4 8.1 5.2 13.2-1.7 3.8-5.3 6.1-9.2 6.1z"/>
    <path class="st3 st5" d="M59.1 1119.1c-5.5 0-10-4.5-10-10V521.6c0-5.5 4.5-10 10-10s10 4.5 10 10v587.5c0 5.5-4.5 10-10 10zM1300.4 1119.1c-5.5 0-10-4.5-10-10V521.6c0-5.5 4.5-10 10-10s10 4.5 10 10v587.5c0 5.5-4.5 10-10 10z"/>
    <path class="st3 st5" d="M1322.4 1091.8H26.4c-5.5 0-10-4.5-10-10s4.5-10 10-10h1296c5.5 0 10 4.5 10 10s-4.5 10-10 10z"/>
    <path class="st7 st5" d="M1323.7 562.2H35.9c-5.5 0-10-4.5-10-10s4.5-10 10-10h1287.8c5.5 0 10 4.5 10 10s-4.5 10-10 10z"/>
    <g class="st7">
      <path class="st5" d="M1300 565c-2.3 0-4.7-.8-6.6-2.5L675.7 33 69.6 560.1c-4.2 3.6-10.5 3.1-14.1-1.1-3.6-4.2-3.1-10.5 1.1-14.1L669.3 12.2c3.8-3.2 9.4-3.2 13.1.1l624.1 535.3c4.2 3.6 4.6 10 .9 14.1-1.9 2.2-4.7 3.3-7.4 3.3z"/>
    </g>
    <g>
      <path class="st3 st5" d="M1220.9 199.7H147.1c-5.5 0-10-4.5-10-10s4.5-10 10-10h1073.8c5.5 0 10 4.5 10 10s-4.5 10-10 10z"/>
      <path class="st3 st5" d="M167.6 562.7c-5.5 0-10-4.5-10-10V169.1c0-5.5 4.5-10 10-10s10 4.5 10 10v383.6c0 5.5-4.5 10-10 10zM1191.8 562.7c-5.5 0-10-4.5-10-10V169.1c0-5.5 4.5-10 10-10s10 4.5 10 10v383.6c0 5.5-4.5 10-10 10z"/>
    </g>
    <g>
      <path class="st6 st5" d="M60.3 1092.4c-3.9 0-7.6-2.3-9.2-6.1-2.2-5.1.2-11 5.3-13.1l1237.4-526.9c5.1-2.2 11 .2 13.1 5.3 2.2 5.1-.2 11-5.3 13.1L64.2 1091.6c-1.3.5-2.6.8-3.9.8z"/>
      <path class="st6 st5" d="M1299.1 1094.1c-1.3 0-2.7-.3-4-.8L72 560.3c-5.1-2.2-7.4-8.1-5.2-13.2s8.1-7.4 13.2-5.2l1223.1 532.9c5.1 2.2 7.4 8.1 5.2 13.2-1.7 3.8-5.3 6.1-9.2 6.1z"/>
    </g>
  </g>
</svg>
